<svg xmlns="http://www.w3.org/2000/svg" xmlns:xlink="http://www.w3.org/1999/xlink" version="1.1" width="119.18518615324967" height="126.77777817023627" enable-background="new 0 0 274.486 255.667" xml:space="preserve"><rect id="backgroundrect" width="100%" height="100%" x="0" y="0" fill="none" stroke="none" class="selected" style=""/>

<g class="currentLayer" style=""><title>Layer 1</title><g id="svg_1" class="">
	<path fill="#122734" d="M32.86849486413752,114.06581504027388 h2.872945081750967 v3.5463131139114576 h-1.7464627616424475 c-1.398277317245268,0 -2.256839517976627,-0.24641894769408693 -2.666469452561543,-0.7408466427448028 c-0.4649853311504458,-0.33332799591307666 -0.6991386586226341,-1.1149794966631361 -0.6991386586226341,-2.4594200779532396 v-2.118673016948298 c0,-0.7196493139109027 0.07085490760387742,-1.3396711823024758 0.19485099591066296,-1.8399281427825136 c0.15333444848651606,-0.5511305496813982 0.33434659525579685,-0.88975787780295 0.5851065416976436,-1.0497977104988938 c0.4566820216656162,-0.4467337051744413 1.3396005968858073,-0.6640063257219152 2.686950949290789,-0.6640063257219152 c0.9089356116059901,0 1.986151628771189,0.09803764585678726 3.166882237513927,0.27715507450324167 l-0.2181002624681852,-2.0821076247098205 c-1.2050869832315716,-0.20720388935137193 -2.320498224026986,-0.32007966539188926 -3.305824282893405,-0.32007966539188926 c-2.543580472186068,0 -4.271222398996235,0.7684031702288727 -5.2903152497676285,2.3544933002254345 c-0.4843597199483807,0.7048111837271727 -0.7345661124245729,1.9559835181481167 -0.7345661124245729,3.756166669367067 v0.8733299479566773 c0,1.4986511485567249 0.14724535486430787,2.591903383165114 0.4367540789020257,3.249020577016012 c0.8485982293495634,1.969231848669304 2.673112100149406,2.9326504441700547 5.554360491385204,2.9326504441700547 c1.0351459157753968,0 2.0525781046498235,-0.07790018346458227 3.0589392142111453,-0.2315808175103568 c0.3265968397366226,-0.04610419021373239 0.6637112048206955,-0.11764517502814467 1.0279497142218779,-0.19289569238848941 v-7.16999647806665 H33.95954973044411 L32.86849486413752,114.06581504027388 z" id="svg_2"/>
	<path fill="#122734" d="M43.172901934810795,110.45379020697732 c-0.7057813062104983,0 -1.4027057489705104,0.10651657739034719 -2.032650161886233,0.2914632714661242 c-1.3357257191262204,0.5082059587927508 -1.9844909668742226,1.5267376092616427 -1.9844909668742226,3.1207767375709174 v2.299910178478142 c0,0.5781571439446209 0.1057288074401609,1.143065957368054 0.3265968397366226,1.6560413151484323 c0.5983918368733717,1.3311922507689156 1.9097611815107585,1.9819502459696434 3.9966596320312098,1.9819502459696434 c0.8380807040021124,0 1.5886998814306894,-0.046634123434579906 2.224179834002964,-0.11287577604051723 c0.7849395232992047,-0.1139356424822122 1.1552671263225949,-0.17593782932136948 1.3301901794696678,-0.21515288766408436 v-1.8632452044998038 c-1.0091288793895976,0.18441676085492947 -2.0852377886234863,0.27238567551561427 -3.1065448552575,0.27238567551561427 h-0.24134952902570747 c-0.41184415044753747,0 -0.8065281279597608,-0.03391572613423992 -1.1834983785710151,-0.13354317165356955 c-0.4013266251000872,-0.12824383944509463 -0.8646512943535668,-0.47905963164613835 -0.8646512943535668,-1.411212167116888 v-0.5717979452944506 h5.650678881409224 v-1.4387686946009581 c0,-0.9056558744283748 -0.11846054865023259,-1.6041078595053775 -0.33988213491234975,-2.0730987599554127 C46.366908316641826,111.0557943458601 45.13580429702445,110.45379020697732 43.172901934810795,110.45379020697732 zM44.89888319972398,114.40497230161627 h-3.3683758810124536 v-0.3698933881515541 c0,-0.49230796216732586 0.15499511038348188,-0.8690904821898972 0.44118251062726804,-1.122398561755001 c0.25850970196102163,-0.2342304836145943 0.672014514305525,-0.3539953915261289 1.2172651704759878,-0.3539953915261289 c0.4146119202758143,0 0.7544940551881636,0.10121724518187226 1.081090894924786,0.2755652748406992 c0.4052015028596742,0.2506584134608667 0.6288373049844124,0.659236926734288 0.6288373049844124,1.4954715492316395 V114.40497230161627 z" id="svg_3"/>
	<path fill="#122734" d="M56.67408315714337,111.6752862810308 c-0.29116938593468394,-0.45574256992884865 -0.6343728446409652,-0.7811215675292126 -1.0146644190461507,-0.9374518676792245 c-0.3874877759587048,-0.1653391649044195 -0.8546873229717716,-0.24641894769408693 -1.4458829582916235,-0.24641894769408693 c-0.15942354210872428,0 -0.24467085281963932,0 -0.31109732869827444,0 c-0.5657321528997089,0.024906861379832432 -1.077216017165199,0.11976490791153464 -1.5211662976207434,0.2538380127859518 c-0.3780773585425648,0.12135470757407711 -0.6852998094812522,0.2517182799025618 -0.884025683151502,0.34922599253850156 c-0.24467085281963932,0.12453430689916208 -0.27511632093068045,0.1314234387701796 -0.359256523710285,0.1314234387701796 h-0.2241893560903935 v-0.6147225361830984 h-2.324373101786572 v9.041720614100017 h2.494867723208402 v-6.729621971542379 l0.13838849141382314,-0.0704811183727173 c0.40686216475664017,-0.21886242021001684 0.8663119562505327,-0.3725430542557915 1.4486507281199001,-0.4483235048369837 c0.05314118070290812,-0.02331706171728994 0.32936460956489927,-0.02331706171728994 0.6653718667176615,0.010598664416949972 c0.7533869472568526,0.16480923168357203 1.1480709247690761,0.6369797314586935 1.1480709247690761,1.3651079769031553 v5.872719953431975 h2.5286345151133744 V114.32018298628067 c0,-0.7694630366705677 -0.03653456173324934,-1.3576889118112905 -0.08580086467657039,-1.761498026097084 C56.89052275771459,112.17554324151084 56.79365081372492,111.87560103851114 56.67408315714337,111.6752862810308 z" id="svg_4"/>
	<path fill="#122734" d="M72.78803909736892,106.72782973119857 h-3.8317005502659334 l-5.422614647559243,8.02583862973536 v2.0370633009377834 h6.9415667293173655 v2.878067322422763 h2.3127484685078112 v-2.878067322422763 h1.4790961962309412 l0.2895087240377181,-2.1658370736037247 h-1.7686049202686591 V106.72782973119857 zM70.47584418282676,114.62489458826798 h-4.148886972586415 l4.148886972586415,-6.054487048182668 V114.62489458826798 z" id="svg_5"/>
	<path fill="#122734" d="M81.06975997753774,116.00007129636721 c0.5142516340937666,-0.40486898072748895 1.0489847649167787,-0.8346448228348102 1.5886998814306894,-1.3009860571806082 c0.41627258217277996,-0.3592947237346041 0.8790436974606043,-0.8229862919761646 1.3739209427564356,-1.351859646381968 c0.33434659525579685,-0.36936345493070644 0.6282837510187568,-0.8383543553807423 0.9316313241978572,-1.427110163742313 c0.22308224815908295,-0.4636915682415611 0.3443105666375921,-0.9782567256844815 0.3443105666375921,-1.5156090116238454 c0,-1.1822810157107686 -0.4107370425162268,-2.095355955231008 -1.2488177465183394,-2.7922181406454682 c-0.8353129341738361,-0.677254656243103 -2.0426141332680285,-1.026480648781604 -3.5720837403736008,-1.026480648781604 c-1.257121056003169,0 -2.4605473773377744,0.2342304836145943 -3.5532629055413207,0.7148799149232754 l-0.30722245093868744,2.4588901447323916 c0.4334327551080941,-0.20720388935137193 0.8917754386706762,-0.4022193146232513 1.332957949297944,-0.5717979452944506 c0.6664789746489723,-0.23052095106866183 1.176302177017496,-0.3672437220473165 1.5886998814306894,-0.4144077787027438 c0.8513659991778395,-0.0990975122984822 1.5565937514226817,0 2.0675240617225166,0.30100206944137925 c0.5463577641017736,0.32007966539188926 0.8308845024485941,0.8606115506563372 0.7672257963982355,1.5585336025124925 c-0.008303309484829388,0.2501284802400193 -0.059783828290771626,0.520394422872243 -0.18765479435714422,0.7996692302588752 c-0.13506716761989138,0.26337681076120684 -0.27511632093068045,0.5002569604800383 -0.4107370425162268,0.6979220518561556 c-0.14613824693299723,0.18759636018001444 -0.3769702506112544,0.4138778454818962 -0.6858533634469075,0.7026914508437829 c-0.3614707395729062,0.3052415352081592 -1.0539667506076764,0.88339867915278 -2.0946482060396256,1.7127441697791146 c-0.5657321528997089,0.46740110078749353 -1.0639307219894718,0.8516026859019297 -1.43924031070376,1.1716823512938186 l-1.795729064585768,1.4726844207351977 v2.3942382917889975 h9.31243836421898 l0.26183102575495343,-2.1578880752910132 h-6.113449996697048 L81.06975997753774,116.00007129636721 z" id="svg_6"/>
	<path fill="#4AC7F4" d="M9.759277459926047,51.20301665046025 c0,-24.732513350173587 20.940946520739704,-44.77988709483445 46.77309588200957,-44.77988709483445 c25.8354706850638,0 46.77309588200957,20.047373744660856 46.77309588200957,44.77988709483445 s-20.937625196945774,44.78518642704292 -46.77309588200957,44.78518642704292 C30.700223980665754,95.98820307750317 9.759277459926047,75.93553000063383 9.759277459926047,51.20301665046025 z" id="svg_7"/>
	<g id="svg_8">
		<path fill="#122734" d="M56.531266234004306,3.727889194395418 c-27.343351687508815,0 -49.5945604449546,21.29907601230265 -49.5945604449546,47.47247778996058 c0,26.188769841062513 22.250655203480125,47.483606387598385 49.5945604449546,47.483606387598385 c27.341137471646196,0 49.59843532271419,-21.294836546535862 49.59843532271419,-47.483606387598385 C106.12970155671849,25.027495139918912 83.8724037056505,3.727889194395418 56.531266234004306,3.727889194395418 zM56.531266234004306,95.46197938920159 c-25.498909873945383,0 -46.229505887736074,-19.855537918714067 -46.229505887736074,-44.26161240484559 c0,-24.396535688156277 20.73004245982504,-44.254193339753726 46.229505887736074,-44.254193339753726 s46.22230968618257,19.857657651597453 46.22230968618257,44.254193339753726 C102.75357592018685,75.60644147048752 82.03072966191534,95.46197938920159 56.531266234004306,95.46197938920159 z" id="svg_9"/>
	</g>
	<path fill="#FFFFFF" d="M47.30407518049623,89.96074262358371 c2.9404786655609128,0.6173722022873355 5.997757217875091,0.9496403317587169 9.124783569861838,0.9496403317587169 c23.100914094726658,0 41.84646558767748,-17.940359258571203 41.84646558767748,-40.06666102861679 c0,-3.845725383690294 -0.5795710020410916,-7.561087195052104 -1.632430644717457,-11.079843781479495 c-0.36479206336683795,-0.81768695976769 -1.493488599337979,-0.5702081456319085 -2.203698337273718,-0.8335849563931147 c-0.6908353491378046,-0.2474788141357817 -1.221140048235575,-0.9830261246721089 -1.221140048235575,-2.1043648199854155 c0,-0.4467337051744413 0.16994106745617488,-1.4223407647546855 0.25961680989233227,-1.8436376753284467 c0.11846054865023259,-0.44037450652427124 0.5812316639380574,-0.7021615176229353 1.0063611095613214,-0.7774120349832803 c-6.6016845944050155,-13.807940002402415 -21.13801173251299,-23.413509563484165 -38.05462092293872,-23.413509563484165 c-5.68499922727985,0 -11.108167428804748,1.0900726352833041 -16.057493435728716,3.0630140164985398 c-0.8569015388343927,0.33332799591307666 3.2211305261481455,14.864096911551478 7.911946831111093,17.00131759122944 c5.600305470534592,2.548448859055619 27.109751914002285,1.7932940193479343 27.369368723894613,4.8298113748041 c0.2800983066215781,3.055065018185827 -0.2601703638579874,4.58392236033086 -0.2601703638579874,4.58392236033086 s-17.269223066548154,-0.5055562926885135 -22.05469709963815,2.2760631835400043 c-3.2609864116753267,1.9167684598054011 -14.66143033434607,18.1433236821558 -21.596907970041226,28.298433993256403 l2.5469017959799998,-20.526433376306997 c0.6177662256713066,-0.2474788141357817 1.4647037931239038,-0.6200218683915732 1.9966691541186394,-1.0937821678292363 c0.04926630294332107,-0.0365653922384774 0.08414020277960452,-0.08319951567305729 0.13340650572292556,-0.11976490791153464 c0.20924339901770067,-0.17964736186730204 0.4063086107909848,-0.3852614515561313 0.5170194039220433,-0.5845163425947907 c0.10849657726843735,-0.18123716152984445 0.1848870245288677,-0.3608845233971468 0.19319033401369717,-0.5585496147732631 l0,0 l0.949898605064482,-3.9411133634428435 l0.6133377939460645,-2.5394399943012114 c0.022695712591867,-1.0105826521561792 -0.7306912346649862,-1.8462873414326837 -1.7132495237031296,-1.877553401462686 c-0.05923027432511633,0 -0.14115626124209954,0 -0.1981723197045947,0.015368063404577463 l-0.057569612428150466,1.6777685772031798 l-0.011624633278761152,0.2866938724784966 c-0.00996397138179527,0.0990975122984822 -0.1024074836462291,0.17964736186730204 -0.20536852125811345,0.17964736186730204 c-0.12897807399768313,0 -0.20979695298335588,-0.08849884788153227 -0.20979695298335588,-0.1981950245969644 l0.03819522363021522,-0.6380395979003881 l-0.005535539656552927,-0.0376252586801724 l0.008303309484829388,-0.2877537389201917 l0.01882083483227995,-0.8982368093365097 l0.2341533274721887,-9.900212431872962 c0.03764166966455993,-1.0132323182604166 -0.6299444129157226,-1.8515866736411588 -1.4674715629521802,-1.8727840024750586 c-0.8502588912465292,-0.018017729508814945 -1.5743074783236515,0.776352168541585 -1.603092284537727,1.786934820697764 l-0.17381594521576188,8.369765290065386 l-0.014392403107037604,0.14202210318712966 c0,0.0990975122984822 -0.08414020277960452,0.184946694075777 -0.20979695298335588,0.17964736186730204 c-0.10074682174926326,0 -0.18765479435714422,-0.08743898143983729 -0.1848870245288677,-0.20296442358459194 l0.016053065004003497,-0.6905029867642902 c-0.2884016161064073,-0.1981950245969644 -0.6393548303318629,-0.3073612680915491 -1.0063611095613214,-0.3163701328459567 c-0.7345661124245729,-0.01695786306711996 -1.3739209427564356,0.35823485729290894 -1.7099281999091982,0.9263232700414271 l-0.03155257604235171,0.5961748734534359 c0,0.10121724518187226 -0.08967574243615745,0.1981950245969644 -0.21533249263990883,0.1981950245969644 c-0.1112643470967138,0 -0.20370785936114766,-0.0990975122984822 -0.20370785936114766,-0.21356308800154192 l0.034320345870628155,-0.4011594481815563 c-0.22142158626211694,-0.09379818009000722 -0.4871274897766575,-0.15633030015001206 -0.745637191737679,-0.15633030015001206 c-0.8829185752201912,-0.02331706171728994 -1.6379661843740099,0.5368223527185156 -1.8854048070219258,1.2972765246346754 v0.4949576282715633 c0,0.006359198650169986 0,0.006359198650169986 0,0.01695786306711996 l-0.023249266557522293,0.009008864754407478 c-0.01992794276359055,0.08478931533559977 -0.1057288074401609,0.1589799662542496 -0.19595810384197357,0.1589799662542496 c-0.11735344071892204,0 -0.19706521177328418,-0.09644784619424471 -0.20149364349852658,-0.1981950245969644 l0.004428431725242341,-0.04398445733034239 c-0.9343990940261335,0.0990975122984822 -1.6728400842102937,0.8489530197976921 -1.7126959697374744,1.764677625422169 l0.25297416230446873,1.8515866736411588 c0.03764166966455993,0.41546764514443885 0.49875212305541855,1.9612828503565911 1.1320178597650727,3.4027012110617862 c0.10683591537147148,0.3031218023247692 0.23359977350653352,0.5834564761530957 0.38305934423346244,0.8489530197976921 c0.24467085281963932,0.4424942394076613 0.5563217354835689,0.8622013503188803 0.9332919860948229,1.2426934028873833 c0.23692109730046523,0.2474788141357817 0.5148051880594218,0.471110633333426 0.783832415367894,0.6693056579303907 c0.1024074836462291,0.050873589201359884 0.18211925470059137,0.08849884788153227 0.2717949971367486,0.14361190284967204 c-0.7777433217456857,4.831401174466642 -2.0442747951649944,12.614000455833 -3.0168691128213436,18.245070860558517 c-1.493488599337979,8.638971366255914 0.5956240670450951,10.711010259769633 0.5956240670450951,10.711010259769633 c0.9670587779997956,0.9337423351332921 3.327412887553962,1.44671769291367 4.42344973955144,0.5145651574429204 c0.9183460290221299,-0.7419065091864976 8.153849914102457,-8.344858428685555 13.636248389952469,-11.53558635140834 c1.862155540464403,-1.083713436633134 3.754202995074192,-1.8478771410952266 5.536093210518578,-2.4043070229850994 " id="svg_10"/>
</g></g></svg>